# xmcd
#
# Track frame offsets: 
#        150
#        13594
#        25511
#        38772
#        52404
#        64353
#        77580
#        89275
#        101837
#        115047
#        128156
#        140942
#        152174
#        164380
#        177464
#        191708
#        202991
#        214390
#        225315
#        242125
#
# Disc length: 3393 seconds
#
# Revision: 1
# Processed by: cddbd v1.5.2PL0 Copyright (c) Steve Scherf et al.
# Submitted via: ExactAudioCopyFreeDBPlugin 1.0
#
DISCID=1c0d3f14
DTITLE=Various Artist - Jazzclub Highlights - The Coolest Rhythm 'n' Blues
DYEAR=1900
DGENRE=Jazz
TTITLE0=Eddie 'Cleanhed' Vinson - Kidney Stew Blues
TTITLE1=Billie Valentine - Beer Drinking Baby
TTITLE2=T-Bone Walker - She's Going To Ruin Me
TTITLE3=Dinah Washington - Please Send Me Someone to Love
TTITLE4=Meredith Howard - Just Kiss Me Once (And You'll Be Back)
TTITLE5=Buddy Johnson - Shut Your Big Mouth (Girl)
TTITLE6=Paul Bascomb - Mumbles Blues
TTITLE7=Joe Liggins - They Were Doing the Mambo
TTITLE8=Viviane Greene - He's the Man (He's Tall and Cool)
TTITLE9=Julia Lee - If it's Good
TTITLE10=Dinah Washington - Joy Juice
TTITLE11=Mel Walker - My Baby
TTITLE12=Eddie 'Cleanhed' Vinson - When I Get Drunk
TTITLE13=Arthur Prysock - Woke Up This Morning
TTITLE14=Junior Tamplin - Love is a Sin
TTITLE15=Preacher Lee Graves - Papa Said Yes, Mama Said No, No, No
TTITLE16=Screamin' Jay Hawkins - Talk About Me
TTITLE17=Eddie 'Cleanhed' Vinson - Gonna Send You Back Where I Got You
TTITLE17=From
TTITLE18=Lightnin' Hopkins - Let Me Fly Your Kite
TTITLE19=Helen Humes - Jet Propelled Papa
EXTD=
EXTT0=
EXTT1=
EXTT2=
EXTT3=
EXTT4=
EXTT5=
EXTT6=
EXTT7=
EXTT8=
EXTT9=
EXTT10=
EXTT11=
EXTT12=
EXTT13=
EXTT14=
EXTT15=
EXTT16=
EXTT17=
EXTT18=
EXTT19=
PLAYORDER=
